<svg xmlns="http://www.w3.org/2000/svg" viewBox="0 0 372 130" role="img" aria-label="Anvil — Foundry tooling, monochrome lockup" fill="none" color="#ECE7DC">
  <g transform="translate(8,4) scale(0.92)">
    <polygon points="60,10 103,35 103,85 60,110 17,85 17,35" fill="none" stroke="currentColor" stroke-width="4" stroke-linejoin="round"/>
    <path d="M30,50 L86,50 C92,50 96,52 99,55 C93,56.5 87,57.5 80,58 L70,58 L66,64 L66,74 L79,74 L79,84 L41,84 L41,74 L54,74 L54,64 L48,58 L30,58 Z" fill="currentColor" stroke="none"/>
    <circle cx="72" cy="34" r="3.2" fill="currentColor"/>
    <circle cx="82" cy="27" r="2.2" fill="currentColor"/>
    <circle cx="60" cy="29" r="1.8" fill="currentColor"/>
  </g>
  <line x1="132.4" y1="30" x2="132.4" y2="100" stroke="currentColor" stroke-width="2" opacity="0.5"/>
  <g transform="translate(148.4,78)" fill="currentColor"><g transform="scale(0.05800,-0.05800)"><path transform="translate(0.000,0)" d="M354 720 681 6H501L293 527ZM139 73Q131 53 136.0 39.0Q141 25 153.0 17.5Q165 10 177 10H186V0H-28V10Q-28 10 -23.5 10.0Q-19 10 -19 10Q4 10 28.5 24.5Q53 39 69 73ZM354 720 358 598 110 3H37L296 589Q299 595 306.5 611.5Q314 628 322.5 649.0Q331 670 338.0 689.5Q345 709 345 720ZM459 238V196H165V238ZM474 73H649Q666 39 690.0 24.5Q714 10 737 10Q737 10 741.0 10.0Q745 10 745 10V0H427V10H436Q456 10 471.0 26.5Q486 43 474 73Z"/><path transform="translate(767.000,0)" d="M108 715 746 107 758 -14 120 593ZM113 71V0H30V10Q30 10 39.0 10.0Q48 10 49 10Q74 10 92.0 28.0Q110 46 110 71ZM253 71Q253 46 271.0 28.0Q289 10 314 10Q315 10 324.0 10.0Q333 10 333 10V0H250V71ZM108 715 252 562 253 0H110V590Q110 646 104.0 680.5Q98 715 98 715ZM755 700V114Q755 77 758.0 47.5Q761 18 764.0 2.0Q767 -14 767 -14H758L613 148V700ZM835 700V690Q835 690 826.0 690.0Q817 690 817 690Q792 690 774.0 672.5Q756 655 755 629H752V700ZM532 700H615V629H613Q612 655 594.5 672.5Q577 690 551 690Q551 690 542.0 690.0Q533 690 532 690Z"/><path transform="translate(1682.000,0)" d="M368 -20 37 694H216L430 173ZM368 -20 365 102 619 697H691L426 111Q424 105 416.5 88.5Q409 72 400.0 51.0Q391 30 384.5 10.5Q378 -9 377 -20ZM589 627Q602 657 586.0 673.5Q570 690 551 690H542V700H756V690Q756 690 751.5 690.0Q747 690 747 690Q725 690 700.5 675.5Q676 661 660 627ZM244 627H68Q52 661 27.5 675.5Q3 690 -20 690Q-20 690 -24.0 690.0Q-28 690 -28 690V700H290V690H281Q262 690 247.5 673.5Q233 657 244 627Z"/><path transform="translate(2460.000,0)" d="M269 700V0H119V700ZM122 73V0H42V10Q42 10 48.5 10.0Q55 10 55 10Q81 10 99.5 28.5Q118 47 119 73ZM122 627H119Q118 653 99.5 671.5Q81 690 55 690Q55 690 48.5 690.0Q42 690 42 690V700H122ZM266 73H269Q270 47 288.5 28.5Q307 10 333 10Q333 10 339.0 10.0Q345 10 346 10V0H266ZM266 627V700H346V690Q345 690 339.0 690.0Q333 690 333 690Q307 690 288.5 671.5Q270 653 269 627Z"/><path transform="translate(2897.000,0)" d="M269 700V0H119V700ZM533 43 557 0H266V43ZM606 205 560 0H364L400 43Q450 43 488.0 62.5Q526 82 553.0 118.5Q580 155 596 205ZM122 73V0H42V10Q42 10 48.5 10.0Q55 10 55 10Q81 10 99.5 28.5Q118 47 119 73ZM122 627H119Q118 653 99.5 671.5Q81 690 55 690Q55 690 48.5 690.0Q42 690 42 690V700H122ZM266 627V700H346V690Q345 690 339.0 690.0Q333 690 333 690Q307 690 288.5 671.5Q270 653 269 627Z"/></g></g>
  <g transform="translate(149.4,104)" fill="currentColor" opacity="0.72"><g transform="scale(0.01400,-0.01400)"><path transform="translate(0.000,0)" d="M247 700V0H125V700ZM474 364V326H244V364ZM521 700V661H244V700ZM474 328V242H464V253Q464 284 443.0 305.0Q422 326 391 326V328ZM474 448V362H391V364Q422 365 443.0 386.0Q464 407 464 438V448ZM521 664V567H511V580Q511 616 488.5 638.5Q466 661 429 661V664ZM521 718V689L399 700Q421 700 445.5 703.0Q470 706 491.0 710.0Q512 714 521 718ZM128 73V0H48V10Q48 10 54.5 10.0Q61 10 61 10Q87 10 105.5 28.5Q124 47 125 73ZM128 627H125Q124 653 105.5 671.5Q87 690 61 690Q61 690 54.5 690.0Q48 690 48 690V700H128ZM244 73H247Q248 47 266.5 28.5Q285 10 311 10Q311 10 317.0 10.0Q323 10 324 10V0H244Z"/><path transform="translate(877.000,0)" d="M438 714Q553 714 639.5 669.5Q726 625 773.0 543.0Q820 461 820 350Q820 239 773.0 157.0Q726 75 639.5 30.5Q553 -14 438 -14Q322 -14 236.0 30.5Q150 75 103.0 157.0Q56 239 56 350Q56 461 103.0 543.0Q150 625 236.0 669.5Q322 714 438 714ZM438 24Q513 24 568.5 64.0Q624 104 654.5 177.0Q685 250 685 350Q685 450 654.5 523.0Q624 596 568.5 636.0Q513 676 438 676Q363 676 307.5 636.0Q252 596 221.5 523.0Q191 450 191 350Q191 250 221.5 177.0Q252 104 307.5 64.0Q363 24 438 24Z"/><path transform="translate(2042.000,0)" d="M233 700V260Q233 189 257.5 136.0Q282 83 327.0 54.0Q372 25 432 25Q496 25 542.0 52.5Q588 80 613.5 129.5Q639 179 639 247V700H702V251Q702 171 668.0 111.5Q634 52 570.5 19.0Q507 -14 420 -14Q322 -14 252.5 18.5Q183 51 147.0 110.5Q111 170 111 250V700ZM114 700V640H111Q111 662 95.5 676.0Q80 690 58 690Q58 690 50.0 690.0Q42 690 42 690V700ZM302 700V690Q302 690 294.0 690.0Q286 690 286 690Q264 690 248.5 676.0Q233 662 233 640H231V700ZM642 700V640H639Q639 662 623.5 676.0Q608 690 586 690Q586 690 578.0 690.0Q570 690 570 690V700ZM771 700V690Q771 690 763.0 690.0Q755 690 755 690Q733 690 717.5 676.0Q702 662 702 640H700V700Z"/><path transform="translate(3151.000,0)" d="M114 715 733 103 744 -14 125 597ZM118 71V0H35V10Q35 10 44.0 10.0Q53 10 54 10Q79 10 97.0 28.0Q115 46 115 71ZM226 71Q226 46 244.0 28.0Q262 10 287 10Q288 10 297.0 10.0Q306 10 306 10V0H223V71ZM114 715 225 594 226 0H115V590Q115 644 109.5 679.5Q104 715 104 715ZM742 700V114Q742 78 745.0 49.0Q748 20 750.5 3.0Q753 -14 753 -14H744L633 111V700ZM822 700V690Q822 690 813.0 690.0Q804 690 804 690Q779 690 761.0 672.5Q743 655 742 629H739V700ZM552 700H635V629H633Q632 655 614.5 672.5Q597 690 571 690Q571 690 562.0 690.0Q553 690 552 690Z"/><path transform="translate(4308.000,0)" d="M403 700Q517 700 601.5 657.5Q686 615 732.0 536.0Q778 457 778 350Q778 243 732.0 164.5Q686 86 601.5 43.0Q517 0 403 0H173L172 38Q191 38 219.5 38.0Q248 38 278.5 38.0Q309 38 335.5 38.0Q362 38 378.5 38.0Q395 38 395 38Q472 38 527.5 76.5Q583 115 614.0 185.0Q645 255 645 350Q645 445 614.0 515.0Q583 585 527.0 623.5Q471 662 395 662Q395 662 377.5 662.0Q360 662 332.5 662.0Q305 662 273.0 662.0Q241 662 211.5 662.0Q182 662 162 662V700ZM247 700V0H125V700ZM128 73V0H48V10Q48 10 54.5 10.0Q61 10 61 10Q87 10 105.5 28.5Q124 47 125 73ZM128 627H125Q125 653 106.0 671.5Q87 690 61 690Q61 690 55.0 690.0Q49 690 49 690L48 700H128Z"/><path transform="translate(5429.000,0)" d="M236 700H369Q414 700 454.5 689.0Q495 678 526.0 655.0Q557 632 574.5 596.5Q592 561 592 512Q592 468 573.0 425.0Q554 382 517.0 353.5Q480 325 426 321Q453 312 477.5 287.5Q502 263 518 239Q519 238 530.5 220.5Q542 203 559.0 178.0Q576 153 594.5 128.0Q613 103 627 86Q649 60 667.5 43.5Q686 27 707.0 18.5Q728 10 755 10V0H672Q620 0 579.5 11.0Q539 22 509.0 44.0Q479 66 457 99Q451 108 440.0 126.5Q429 145 416.0 168.0Q403 191 390.5 212.5Q378 234 369.5 251.0Q361 268 358 275Q342 304 323.0 322.0Q304 340 282 342V352Q284 352 295.0 351.5Q306 351 320 352Q347 353 374.5 362.0Q402 371 424.0 395.5Q446 420 456 464Q458 473 460.0 487.0Q462 501 461 516Q458 586 425.0 622.0Q392 658 341 660Q322 661 301.0 660.5Q280 660 264.5 660.0Q249 660 246 660Q246 661 243.5 671.0Q241 681 238.5 690.5Q236 700 236 700ZM249 700V0H127V700ZM130 73V0H50V10Q51 10 56.5 10.0Q62 10 63 10Q89 10 107.5 28.5Q126 47 127 73ZM130 627H127Q126 653 107.5 671.5Q89 690 63 690Q62 690 56.5 690.0Q51 690 50 690V700H130ZM246 73H249Q249 47 268.0 28.5Q287 10 313 10Q314 10 319.5 10.0Q325 10 325 10V0H246Z"/><path transform="translate(6453.000,0)" d="M192 699 394 329 285 308 49 699ZM402 322V0H280V322ZM569 699H641L393 302L347 312ZM528 628Q536 642 532.0 656.5Q528 671 517.5 680.5Q507 690 493 690Q493 690 487.0 690.0Q481 690 481 690V700H714V690H700Q669 690 641.5 672.0Q614 654 599 631ZM231 628 90 631Q76 654 49.0 672.0Q22 690 -10 690H-24V700H279V690Q279 690 272.5 690.0Q266 690 266 690Q244 690 232.5 669.5Q221 649 231 628ZM283 73V0H203V10Q203 10 209.0 10.0Q215 10 216 10Q242 10 260.5 28.5Q279 47 280 73ZM399 73H402Q402 47 421.0 28.5Q440 10 466 10Q466 10 472.0 10.0Q478 10 478 10V0H399Z"/><path transform="translate(7992.000,0)" d="M387 697V0H265V697ZM635 701V663H16V701ZM635 666V561L625 562V575Q625 614 601.0 638.0Q577 662 538 663V666ZM635 719V690L513 701Q535 701 559.5 704.0Q584 707 605.0 711.0Q626 715 635 719ZM268 73V0H188V10Q188 10 194.5 10.0Q201 10 201 10Q227 10 245.5 28.5Q264 47 265 73ZM384 73H387Q388 47 406.5 28.5Q425 10 451 10Q451 10 457.5 10.0Q464 10 464 10V0H384ZM113 666V663Q74 662 50.0 638.0Q26 614 26 575V562L16 561V666ZM16 719Q26 715 46.5 711.0Q67 707 92.0 704.0Q117 701 138 701L16 690Z"/><path transform="translate(8942.000,0)" d="M438 714Q553 714 639.5 669.5Q726 625 773.0 543.0Q820 461 820 350Q820 239 773.0 157.0Q726 75 639.5 30.5Q553 -14 438 -14Q322 -14 236.0 30.5Q150 75 103.0 157.0Q56 239 56 350Q56 461 103.0 543.0Q150 625 236.0 669.5Q322 714 438 714ZM438 24Q513 24 568.5 64.0Q624 104 654.5 177.0Q685 250 685 350Q685 450 654.5 523.0Q624 596 568.5 636.0Q513 676 438 676Q363 676 307.5 636.0Q252 596 221.5 523.0Q191 450 191 350Q191 250 221.5 177.0Q252 104 307.5 64.0Q363 24 438 24Z"/><path transform="translate(10107.000,0)" d="M438 714Q553 714 639.5 669.5Q726 625 773.0 543.0Q820 461 820 350Q820 239 773.0 157.0Q726 75 639.5 30.5Q553 -14 438 -14Q322 -14 236.0 30.5Q150 75 103.0 157.0Q56 239 56 350Q56 461 103.0 543.0Q150 625 236.0 669.5Q322 714 438 714ZM438 24Q513 24 568.5 64.0Q624 104 654.5 177.0Q685 250 685 350Q685 450 654.5 523.0Q624 596 568.5 636.0Q513 676 438 676Q363 676 307.5 636.0Q252 596 221.5 523.0Q191 450 191 350Q191 250 221.5 177.0Q252 104 307.5 64.0Q363 24 438 24Z"/><path transform="translate(11272.000,0)" d="M247 700V0H125V700ZM512 39 529 0H244V39ZM582 190 532 0H345L381 39Q432 39 469.0 57.5Q506 76 531.0 110.5Q556 145 572 190ZM128 73V0H48V10Q48 10 54.5 10.0Q61 10 61 10Q87 10 105.5 28.5Q124 47 125 73ZM128 627H125Q124 653 105.5 671.5Q87 690 61 690Q61 690 54.5 690.0Q48 690 48 690V700H128ZM244 627V700H324V690Q323 690 317.0 690.0Q311 690 311 690Q285 690 266.5 671.5Q248 653 247 627Z"/><path transform="translate(12170.000,0)" d="M247 700V0H125V700ZM128 73V0H48V10Q48 10 54.5 10.0Q61 10 61 10Q87 10 105.5 28.5Q124 47 125 73ZM128 627H125Q124 653 105.5 671.5Q87 690 61 690Q61 690 54.5 690.0Q48 690 48 690V700H128ZM244 73H247Q248 47 266.5 28.5Q285 10 311 10Q311 10 317.0 10.0Q323 10 324 10V0H244ZM244 627V700H324V690Q323 690 317.0 690.0Q311 690 311 690Q285 690 266.5 671.5Q248 653 247 627Z"/><path transform="translate(12840.000,0)" d="M114 715 733 103 744 -14 125 597ZM118 71V0H35V10Q35 10 44.0 10.0Q53 10 54 10Q79 10 97.0 28.0Q115 46 115 71ZM226 71Q226 46 244.0 28.0Q262 10 287 10Q288 10 297.0 10.0Q306 10 306 10V0H223V71ZM114 715 225 594 226 0H115V590Q115 644 109.5 679.5Q104 715 104 715ZM742 700V114Q742 78 745.0 49.0Q748 20 750.5 3.0Q753 -14 753 -14H744L633 111V700ZM822 700V690Q822 690 813.0 690.0Q804 690 804 690Q779 690 761.0 672.5Q743 655 742 629H739V700ZM552 700H635V629H633Q632 655 614.5 672.5Q597 690 571 690Q571 690 562.0 690.0Q553 690 552 690Z"/><path transform="translate(13997.000,0)" d="M739 280V115Q716 85 671.5 55.0Q627 25 564.0 5.5Q501 -14 421 -14Q311 -13 227.0 31.5Q143 76 96.5 157.5Q50 239 50 351Q50 461 96.0 543.0Q142 625 227.0 669.5Q312 714 425 714Q480 714 529.5 706.0Q579 698 620.5 684.5Q662 671 691 655L699 494H690Q672 559 636.5 598.5Q601 638 552.0 657.0Q503 676 446 676Q363 676 304.5 635.5Q246 595 215.0 521.5Q184 448 184 347Q184 249 213.5 176.5Q243 104 298.5 64.5Q354 25 430 24Q470 24 506.0 35.0Q542 46 571.5 67.5Q601 89 618 119L619 280Q619 325 568 325H552V335H804V325H789Q737 325 739 280Z"/></g></g>
</svg>
